<?xml version="1.0" standalone="no"?>
<!DOCTYPE svg PUBLIC "-//W3C//DTD SVG 20010904//EN"
 "http://www.w3.org/TR/2001/REC-SVG-20010904/DTD/svg10.dtd">
<svg version="1.0" xmlns="http://www.w3.org/2000/svg"
 width="600.000000pt" height="600.000000pt" viewBox="0 0 600.000000 600.000000"
 preserveAspectRatio="xMidYMid meet">
<metadata>
Created by potrace 1.16, written by Peter Selinger 2001-2019
</metadata>
<g transform="translate(0.000000,600.000000) scale(0.100000,-0.100000)"
fill="#000000" stroke="none">
<path d="M0 3000 l0 -3000 3000 0 3000 0 0 3000 0 3000 -3000 0 -3000 0 0
-3000z m927 2535 c54 -16 105 -63 124 -114 24 -60 4 -168 -37 -202 -8 -6 -3 8
11 32 40 71 32 129 -20 134 -5 0 -16 4 -22 8 -8 5 -13 4 -13 -2 0 -17 -267
-15 -273 2 -8 22 -19 -54 -13 -88 4 -18 16 -45 27 -60 12 -14 19 -28 16 -31
-12 -12 -51 73 -55 122 -8 92 43 167 137 200 47 17 58 17 118 -1z m1112 -23
c64 -39 94 -98 89 -179 -4 -69 -20 -97 -82 -147 -52 -42 -141 -48 -206 -14
-120 64 -142 217 -45 313 69 70 159 80 244 27z m1051 13 c58 -30 110 -112 110
-173 0 -73 -48 -150 -114 -181 -163 -79 -342 91 -267 254 21 47 80 102 119
111 15 3 32 7 37 9 17 6 88 -7 115 -20z m1070 -3 c46 -23 96 -90 104 -141 13
-84 -29 -169 -104 -209 -65 -34 -154 -28 -206 14 -62 50 -78 78 -82 147 -3 51
1 70 20 106 53 99 165 134 268 83z m1079 -10 c176 -108 78 -380 -130 -360
-157 15 -228 204 -122 327 63 74 165 87 252 33z m-4397 -419 c21 -3 58 0 84 6
43 11 51 10 110 -18 126 -59 219 -183 229 -303 l4 -53 -9 53 c-12 62 -48 139
-80 167 l-23 20 13 -25 13 -25 -22 19 c-22 20 -22 20 -16 0 6 -17 6 -17 -5 -1
-10 16 -36 17 -299 17 l-287 0 -22 -30 c-12 -16 -31 -51 -41 -77 -11 -26 -20
-41 -20 -33 -2 33 61 143 107 189 67 67 163 116 207 105 11 -3 37 -8 57 -11z
m1091 4 c26 1 66 2 90 4 88 5 227 -100 279 -211 26 -54 50 -155 40 -165 -3 -3
-41 -5 -84 -5 l-78 0 0 55 c0 52 -1 55 -25 55 -24 0 -25 -3 -25 -55 l0 -55
-200 0 -200 0 0 55 c0 48 -2 55 -20 55 -18 0 -20 -7 -20 -55 l0 -55 -86 0 -86
0 7 48 c9 69 57 164 111 222 61 66 175 124 219 113 16 -4 51 -7 78 -6z m1042
-3 c22 -3 59 -1 82 5 60 16 136 -14 213 -85 69 -65 104 -121 125 -200 25 -96
27 -94 -64 -94 l-79 0 -7 60 c-6 50 -10 60 -26 60 -17 0 -19 -8 -19 -60 l0
-60 -200 0 -200 0 0 60 c0 52 -3 60 -19 60 -15 0 -20 -10 -25 -60 l-7 -60 -79
0 c-92 0 -90 -2 -65 94 24 93 76 168 162 233 42 32 123 64 148 58 11 -3 38 -8
60 -11z m1067 0 c21 -4 59 -1 85 5 45 12 50 11 118 -23 120 -59 213 -183 230
-308 l7 -48 -86 0 -86 0 0 55 c0 48 -2 55 -20 55 -18 0 -20 -7 -20 -55 l0 -55
-200 0 -200 0 0 55 c0 52 -1 55 -25 55 -24 0 -25 -3 -25 -55 l0 -55 -84 0 -85
0 6 38 c16 104 70 204 146 266 59 48 146 88 177 81 14 -3 42 -8 62 -11z m1091
3 c26 1 66 2 90 4 51 3 121 -31 189 -91 57 -50 116 -161 125 -237 l6 -53 -81
0 -81 0 -3 58 c-3 49 -6 57 -23 57 -17 0 -20 -8 -23 -57 l-3 -58 -194 0 -194
0 -3 58 c-3 49 -6 57 -23 57 -17 0 -20 -8 -23 -57 l-3 -58 -84 0 c-96 0 -93
-4 -70 83 33 126 104 215 218 272 57 29 77 34 102 28 16 -4 51 -7 78 -6z
m-4188 -636 c105 -49 147 -168 96 -270 -19 -37 -76 -91 -97 -91 -5 0 8 12 30
27 21 15 46 44 57 65 22 43 25 120 6 140 -8 7 -12 20 -9 28 3 8 -5 4 -17 -9
-19 -22 -21 -22 -21 -5 0 16 -2 17 -10 4 -5 -8 -10 -10 -10 -5 0 6 -44 8 -122
5 -76 -3 -128 -2 -137 5 -11 7 -13 7 -8 -2 4 -6 1 -13 -5 -15 -21 -8 -16 -118
7 -153 12 -16 14 -26 6 -21 -20 13 -41 71 -41 116 0 144 146 241 275 181z
m1063 4 c75 -32 122 -102 122 -182 -1 -179 -204 -268 -333 -145 -43 41 -60 81
-60 142 0 61 17 101 60 142 58 56 140 72 211 43z m1102 -19 c108 -71 118 -221
20 -310 -35 -32 -92 -56 -130 -56 -94 0 -199 102 -200 194 0 81 62 174 132
195 53 16 135 6 178 -23z m2098 19 c141 -60 165 -255 42 -344 -197 -143 -430
134 -253 301 58 56 140 72 211 43z m-4388 -435 c27 -5 67 -4 103 2 55 10 61 9
121 -21 113 -55 212 -188 222 -294 l3 -42 -8 41 c-14 61 -37 111 -72 155 -27
34 -33 38 -47 27 -12 -10 -14 -10 -8 0 4 6 6 13 4 14 -2 1 -124 5 -273 8 -260
5 -270 4 -290 -15 -41 -41 -57 -65 -81 -122 -14 -32 -23 -45 -19 -29 23 109
131 230 243 271 45 16 45 16 102 5z m1305 -25 c63 -32 143 -111 175 -175 22
-43 51 -159 43 -172 -2 -5 -40 -8 -84 -8 l-79 0 0 61 c0 57 -1 60 -22 57 -20
-3 -23 -10 -26 -61 l-3 -57 -197 2 -197 3 -3 58 c-3 49 -6 57 -22 57 -18 0
-20 -7 -20 -60 l0 -60 -85 0 c-98 0 -95 -3 -69 95 29 112 109 211 212 262 54
27 63 28 189 27 124 -1 135 -3 188 -29z m832 26 c23 -5 66 -4 97 1 50 9 61 7
112 -16 114 -52 188 -137 225 -257 31 -101 32 -99 -66 -99 l-85 0 0 55 c0 48
-2 55 -20 55 -18 0 -20 -7 -20 -55 l0 -55 -200 0 -200 0 0 55 c0 48 -2 55 -20
55 -18 0 -20 -7 -20 -55 l0 -55 -85 0 c-98 0 -97 -2 -66 99 37 119 110 204
221 255 60 28 66 29 127 17z m2198 -1 c84 7 112 3 158 -19 115 -56 212 -187
224 -304 l6 -57 -82 0 -81 0 0 60 c0 57 -1 60 -25 60 -24 0 -25 -3 -25 -60 l0
-60 -197 2 -198 3 -3 58 c-3 49 -6 57 -22 57 -18 0 -20 -7 -20 -60 l0 -60 -79
0 c-44 0 -82 4 -85 9 -4 5 -1 33 5 63 26 122 111 233 224 289 52 26 66 29 110
23 28 -4 68 -5 90 -4z m-4197 -641 c52 -26 102 -96 102 -143 -1 -28 -3 -26
-18 18 -26 75 -47 85 -180 88 -84 2 -111 0 -108 -9 3 -7 -1 -10 -8 -7 -20 8
-60 -64 -67 -121 l-6 -50 -1 45 c-4 149 149 245 286 179z m1089 -15 c51 -40
83 -106 82 -164 -2 -30 -3 -35 -6 -15 -8 68 -24 106 -49 116 -14 5 -30 7 -35
3 -5 -3 -9 0 -9 7 0 9 -3 10 -10 3 -7 -7 -29 -8 -58 -3 -26 4 -62 4 -79 2 -18
-3 -39 0 -47 6 -19 16 -50 3 -36 -14 8 -10 6 -13 -7 -11 -43 3 -59 -123 -23
-181 11 -18 17 -33 15 -33 -3 0 -14 15 -25 33 -32 51 -28 141 9 198 40 64 96
91 178 87 51 -3 69 -9 100 -34z m1041 17 c134 -69 149 -240 29 -335 -36 -29
-45 -31 -117 -31 -72 0 -81 2 -117 31 -121 96 -105 265 32 337 42 23 127 21
173 -2z m1091 -14 c55 -37 85 -96 85 -168 -1 -91 -59 -164 -152 -189 -120 -31
-242 65 -242 193 0 59 14 94 53 136 46 48 82 62 153 58 47 -2 72 -9 103 -30z
m1034 19 c39 -17 92 -71 106 -109 43 -112 -28 -241 -146 -267 -136 -31 -269
105 -234 237 33 121 163 187 274 139z m-4159 -456 c58 -29 133 -100 159 -150
17 -34 17 -34 0 -10 -41 56 -70 85 -110 110 -35 22 -53 27 -95 25 -28 -2 -46
0 -40 3 5 4 -12 7 -38 7 -26 0 -46 -3 -44 -7 2 -3 -39 -4 -92 -1 -69 4 -95 3
-90 -5 3 -6 1 -14 -5 -18 -7 -4 -9 -3 -6 3 4 6 0 14 -9 17 -8 3 -12 2 -9 -4 3
-5 0 -7 -8 -4 -9 3 -41 -19 -83 -58 -37 -35 -62 -54 -56 -43 19 37 111 115
161 139 43 20 63 22 182 21 121 -1 139 -3 183 -25z m1065 1 c57 -30 134 -102
166 -156 34 -59 32 -69 -4 -14 -15 24 -44 58 -62 74 -36 32 -85 63 -75 47 6
-10 -37 -8 -55 4 -7 4 -10 3 -7 -2 4 -5 -68 -9 -172 -9 -98 0 -176 3 -173 8 2
4 -1 7 -6 7 -6 0 -11 -4 -11 -10 0 -5 -4 -9 -9 -7 -24 6 -70 -38 -137 -128 -8
-11 -5 0 7 24 28 58 102 130 168 162 49 24 61 25 189 24 121 -1 142 -4 181
-24z m1079 -6 c102 -55 191 -183 207 -297 l7 -48 -86 0 -86 0 0 55 c0 48 -2
55 -20 55 -18 0 -20 -7 -20 -55 l0 -55 -200 0 -200 0 0 55 c0 48 -2 55 -20 55
-18 0 -20 -7 -20 -55 l0 -55 -86 0 -86 0 7 48 c16 117 109 248 214 300 55 27
62 28 197 27 133 -1 142 -2 192 -30z m1065 2 c103 -60 164 -136 197 -245 32
-104 34 -102 -65 -102 l-85 0 0 55 c0 48 -2 55 -20 55 -18 0 -20 -7 -20 -55
l0 -55 -200 0 -200 0 0 55 c0 52 -1 55 -25 55 -24 0 -25 -3 -25 -55 l0 -55
-85 0 -84 0 5 33 c26 145 108 262 225 317 53 25 64 26 196 25 133 -1 141 -2
186 -28z m1063 0 c104 -53 194 -179 213 -295 l8 -52 -83 0 -84 0 0 55 c0 52
-1 55 -25 55 -24 0 -25 -3 -25 -55 l0 -55 -200 0 -200 0 0 55 c0 48 -2 55 -20
55 -18 0 -20 -7 -20 -55 l0 -55 -86 0 -86 0 6 38 c26 147 122 273 247 326 21
9 74 12 168 11 125 -2 140 -4 187 -28z m-4367 -616 c60 -30 94 -83 99 -151 6
-77 -1 -102 -41 -146 -98 -113 -267 -91 -328 41 -79 172 102 343 270 256z
m1073 -2 c103 -53 129 -207 50 -301 -82 -97 -245 -85 -316 24 -50 76 -38 177
28 243 66 66 151 78 238 34z m1059 5 c14 -7 40 -29 57 -48 112 -128 22 -326
-148 -326 -170 0 -260 198 -148 326 34 39 58 54 103 65 37 9 101 1 136 -17z
m1027 14 c62 -15 125 -78 140 -140 40 -159 -116 -295 -266 -233 -108 46 -154
172 -99 275 26 50 56 75 113 95 49 18 54 18 112 3z m1113 -18 c56 -29 92 -88
95 -158 l3 -57 -9 48 c-14 78 -15 78 -166 76 -73 0 -137 2 -143 6 -6 3 -11 2
-11 -4 0 -6 -6 -8 -14 -5 -13 5 -29 -24 -39 -71 -3 -12 -5 -6 -6 13 -3 98 108
190 212 176 22 -2 56 -13 78 -24z m-4389 -427 c21 -3 58 0 84 6 43 11 51 10
110 -18 135 -63 209 -165 238 -328 l6 -33 -85 0 -85 0 0 61 c0 57 -1 60 -22
57 -20 -3 -23 -10 -26 -60 l-3 -58 -194 0 -194 0 -3 58 c-3 49 -6 57 -23 57
-17 0 -20 -8 -23 -57 l-3 -58 -79 0 -80 0 1 33 c1 30 2 30 8 7 7 -23 11 -25
72 -25 l64 0 3 58 3 57 34 0 35 0 0 -60 0 -60 185 0 184 0 3 58 c3 56 3 57 35
60 l32 3 3 -58 3 -58 69 -3 69 -3 -6 50 c-7 57 -44 137 -78 166 -13 12 -19 14
-14 5 7 -12 6 -13 -6 -4 -8 6 -22 10 -32 8 -13 -2 -17 2 -13 12 5 12 2 12 -17
1 -17 -11 -73 -14 -237 -13 -118 1 -221 6 -229 10 -10 6 -12 5 -7 -2 9 -15
-26 -16 -41 -1 -15 15 -69 -57 -93 -123 -10 -29 -19 -44 -19 -33 -2 37 58 145
107 194 67 67 163 116 207 105 11 -3 37 -8 57 -11z m1091 4 c26 1 66 2 90 4
126 7 300 -176 315 -332 l5 -49 -81 0 -81 0 -3 58 c-3 49 -6 57 -23 57 -17 0
-20 -8 -23 -57 l-3 -58 -194 0 -195 0 -2 43 c0 23 -1 49 -2 57 -1 8 -11 16
-23 18 -22 3 -23 0 -23 -57 l0 -61 -85 0 -85 0 6 43 c23 143 106 256 237 318
48 23 69 28 92 22 17 -4 51 -7 78 -6z m1042 -3 c22 -3 59 -1 82 5 111 30 284
-109 333 -266 11 -36 20 -76 20 -89 0 -23 -2 -24 -85 -24 l-85 0 0 61 c0 52
-2 60 -17 57 -14 -2 -19 -15 -21 -61 l-3 -57 -199 0 -199 0 -3 57 c-2 44 -7
57 -20 59 -15 2 -18 -6 -18 -57 l0 -59 -85 0 c-83 0 -85 1 -85 24 0 47 41 154
76 202 20 27 56 65 80 84 52 42 141 82 169 75 11 -3 38 -8 60 -11z m1070 0
c22 -3 60 -1 83 6 40 10 48 9 107 -19 118 -55 197 -150 230 -276 23 -89 26
-85 -70 -85 l-84 0 -3 58 c-2 43 -7 57 -18 57 -18 0 -28 -26 -29 -77 l-1 -38
-195 0 -194 0 -3 58 c-3 49 -6 57 -23 57 -17 0 -20 -8 -23 -57 l-3 -58 -81 0
-81 0 5 49 c6 58 53 164 97 213 57 66 182 133 226 123 11 -3 38 -8 60 -11z
m1088 3 c26 1 66 2 90 4 55 3 129 -34 193 -98 43 -42 104 -133 90 -133 -3 0
-12 12 -20 28 -19 37 -76 93 -87 86 -5 -3 -9 3 -9 13 0 10 -4 14 -8 8 -8 -12
-463 -14 -456 -3 3 4 -2 5 -10 2 -9 -3 -16 -10 -16 -16 0 -5 -5 -6 -10 -3 -6
4 -7 12 -3 18 20 33 -66 -47 -94 -88 -42 -60 -43 -48 -2 16 63 98 201 188 264
172 17 -4 51 -7 78 -6z m-4195 -633 c80 -33 125 -100 125 -184 0 -61 -17 -101
-60 -142 -128 -122 -333 -34 -333 142 0 142 140 238 268 184z m1070 1 c144
-61 166 -256 39 -344 -87 -59 -182 -50 -253 24 -62 64 -76 157 -36 230 17 32
74 82 107 93 44 15 101 14 143 -3z m1101 -18 c50 -33 80 -84 88 -146 5 -42 1
-59 -21 -106 -76 -155 -287 -149 -357 10 -42 95 -3 203 91 252 59 31 143 27
199 -10z m1029 17 c78 -32 123 -97 124 -178 1 -92 -59 -174 -144 -196 -120
-33 -248 65 -248 188 0 143 140 240 268 186z m1070 1 c141 -60 165 -255 42
-344 -99 -71 -240 -36 -297 73 -21 40 -21 132 -1 171 50 94 163 138 256 100z
m-4381 -434 c24 -5 67 -4 98 2 53 9 60 7 120 -22 110 -54 197 -164 224 -282
19 -81 21 -79 -74 -79 l-85 0 0 60 c0 53 -2 60 -20 60 -16 0 -19 -8 -22 -57
l-3 -58 -197 -3 -197 -2 -3 57 c-3 50 -6 58 -23 58 -17 0 -20 -8 -23 -57 l-3
-58 -79 0 c-43 0 -81 3 -83 8 -9 15 23 134 48 181 36 66 108 134 180 170 64
33 76 35 142 22z m1093 -4 c8 -1 41 2 72 6 53 8 63 6 123 -24 114 -56 208
-182 222 -297 l6 -52 -82 0 -81 0 0 55 c0 52 -1 55 -25 55 -24 0 -25 -3 -25
-55 l0 -55 -195 0 -195 0 -1 40 c-2 63 -3 65 -26 68 -22 3 -23 0 -23 -52 l0
-56 -86 0 c-76 0 -85 2 -81 18 3 9 8 35 12 56 18 105 110 222 218 276 52 26
69 30 107 25 25 -4 52 -7 60 -8z m1037 4 c24 -5 66 -4 97 1 52 9 61 8 121 -20
121 -57 217 -186 232 -311 l6 -52 -84 3 -84 3 -3 58 c-3 48 -6 57 -22 57 -16
0 -19 -9 -22 -57 l-3 -58 -197 -3 -198 -2 0 60 c0 53 -2 60 -20 60 -16 0 -19
-8 -22 -57 l-3 -58 -84 -3 -84 -3 6 52 c15 124 111 253 229 309 68 32 72 33
135 21z m1063 -1 c29 -6 65 -5 102 2 52 9 61 8 112 -15 107 -49 214 -179 231
-282 4 -22 9 -48 12 -57 4 -16 -5 -18 -81 -18 l-86 0 0 56 c0 52 -1 55 -22 52
-20 -3 -23 -10 -26 -55 l-3 -53 -195 0 -194 0 0 55 c0 52 -1 55 -25 55 -24 0
-25 -3 -25 -55 l0 -55 -80 0 c-77 0 -80 1 -80 23 0 36 29 128 53 167 50 81
126 146 206 175 44 16 45 16 101 5z m1135 -1 c85 9 113 4 168 -24 112 -56 202
-183 214 -300 l6 -55 -82 0 -81 0 0 60 c0 57 -1 60 -25 60 -24 0 -25 -3 -25
-60 l0 -60 -197 2 -198 3 -3 58 c-3 48 -6 57 -22 57 -16 0 -19 -9 -22 -57 l-3
-58 -74 -3 c-41 -2 -78 1 -83 6 -5 5 -4 32 3 63 26 123 111 233 224 290 53 27
66 29 110 22 28 -4 68 -6 90 -4z"/>
<path d="M2831 5406 c-17 -20 -16 -108 2 -142 31 -59 103 -104 167 -104 64 0
136 45 167 104 20 39 19 124 -2 145 -15 15 -15 14 -9 -4 6 -16 5 -18 -7 -9 -8
7 -67 12 -144 13 -71 2 -132 4 -134 7 -2 2 -10 -4 -18 -14 -14 -16 -14 -16 -9
1 7 21 2 22 -13 3z"/>
<path d="M4954 5337 c-3 -8 1 -27 7 -43 7 -16 13 -32 13 -36 1 -4 8 -13 16
-20 12 -11 12 -11 0 6 -13 16 -12 18 5 14 12 -2 19 -10 17 -20 -1 -9 2 -19 7
-22 5 -3 8 2 7 12 -1 12 7 17 29 18 17 1 65 3 107 5 52 2 81 0 90 -9 21 -21
32 -13 12 9 l-19 22 25 -13 c22 -12 24 -12 12 2 -11 13 -10 16 4 14 17 -1 38
49 28 66 -3 4 -84 8 -180 8 -136 0 -176 -3 -180 -13z"/>
<path d="M2719 4971 c-53 -35 -100 -117 -114 -198 l-7 -43 71 0 70 0 3 58 c3
56 3 57 35 60 l32 3 3 -58 3 -58 185 0 185 0 3 58 3 58 32 -3 c32 -3 32 -4 35
-60 l3 -58 71 0 70 0 -7 37 c-10 57 -43 135 -68 163 -45 50 -92 69 -114 45 -4
-4 -2 -5 6 0 10 6 12 4 7 -4 -5 -7 -13 -8 -19 -4 -14 10 -398 10 -414 0 -7 -4
-15 -2 -19 4 -5 8 -3 9 7 4 8 -5 11 -4 6 0 -12 14 -42 12 -68 -4z"/>
<path d="M4812 4912 c-23 -4 -47 -36 -37 -51 3 -5 0 -11 -7 -13 -9 -3 -8 -9 5
-22 16 -17 17 -17 17 1 0 10 3 14 8 7 10 -14 55 -13 65 3 11 19 86 17 93 -2 5
-12 33 -15 165 -15 120 0 159 3 160 13 0 6 4 3 9 -8 5 -11 9 -15 9 -8 3 40 88
51 98 12 7 -24 20 -24 26 -1 4 15 5 15 6 1 0 -9 7 -19 15 -22 10 -4 12 0 8 16
-5 22 -5 22 13 3 18 -18 19 -18 26 0 5 12 8 14 8 5 1 -8 3 -12 6 -9 3 2 -3 23
-12 46 l-16 42 -301 1 c-166 0 -310 2 -321 3 -11 1 -30 0 -43 -2z"/>
<path d="M3140 4293 c0 -4 -69 -7 -152 -6 -84 2 -158 1 -165 -2 -15 -5 2 -80
27 -114 20 -28 108 -83 95 -59 -6 10 -5 11 6 1 7 -7 29 -13 49 -13 20 0 42 6
49 13 11 10 12 9 6 -1 -13 -24 75 31 95 59 11 14 23 45 29 68 8 36 7 43 -7 48
-10 3 -20 8 -24 10 -5 2 -8 1 -8 -4z"/>
<path d="M4950 4259 c0 -11 5 -30 11 -42 14 -25 49 -62 49 -50 0 4 5 1 10 -7
6 -10 10 -11 10 -2 0 9 32 12 124 12 l124 0 21 43 c12 24 21 49 21 55 0 9 -49
12 -185 12 -180 0 -185 -1 -185 -21z"/>
<path d="M2652 3832 c-22 -33 -41 -93 -42 -128 l0 -31 65 -2 65 -2 0 55 0 56
38 0 c36 0 37 -1 37 -38 1 -75 -6 -72 189 -72 l174 0 6 45 c4 25 4 49 1 55 -4
6 10 10 34 10 l41 0 0 -54 0 -54 66 0 66 1 -5 49 c-4 27 -17 67 -29 89 l-23
40 -334 2 -334 2 -15 -23z"/>
<path d="M4772 3803 c-11 -26 -19 -49 -17 -51 2 -2 26 -6 55 -9 46 -5 52 -3
57 16 8 30 78 31 86 1 5 -19 14 -20 181 -20 159 0 177 2 183 18 4 9 11 20 15
23 17 11 61 -4 65 -22 4 -15 15 -19 53 -19 54 0 62 9 47 55 -19 57 -3 55 -367
55 l-337 0 -21 -47z"/>
<path d="M2857 3324 c-3 -3 -3 -12 0 -20 3 -9 0 -14 -8 -12 -21 5 -39 -82 -27
-131 25 -100 152 -159 251 -117 44 19 93 74 105 118 11 40 -1 115 -20 133 -8
7 -9 6 -4 -2 5 -9 2 -11 -8 -7 -9 3 -14 10 -11 15 3 4 -3 6 -14 4 -11 -2 -65
-5 -120 -6 -82 -2 -104 0 -119 14 -10 9 -21 14 -25 11z"/>
<path d="M2732 2856 c-49 -26 -106 -114 -117 -181 -4 -22 -9 -48 -12 -57 -4
-16 4 -18 66 -18 l71 0 0 55 0 55 35 0 c34 0 35 -1 35 -39 0 -74 -8 -71 196
-71 101 0 183 3 183 8 -1 4 -1 28 0 55 1 47 1 47 36 47 l35 0 0 -55 0 -56 68
3 67 3 -3 35 c-9 81 -69 187 -122 214 -18 9 -87 12 -256 11 -128 -2 -236 -5
-242 -9 -6 -3 -12 -2 -14 3 -2 6 -13 4 -26 -3z"/>
<path d="M685 2166 c-15 -76 48 -170 129 -196 114 -36 242 58 234 173 -3 39
-5 41 -35 42 -18 0 -34 3 -37 5 -2 3 -63 3 -136 0 -72 -3 -135 -1 -140 4 -5 5
-12 -7 -15 -28z"/>
<path d="M1802 2230 c-6 -14 -11 -18 -11 -10 -1 12 -4 12 -17 -2 -27 -27 -30
-107 -5 -155 39 -77 132 -118 213 -94 55 16 115 74 129 124 12 44 4 113 -14
124 -7 4 -65 8 -131 9 -88 1 -121 5 -127 15 -7 11 -9 9 -10 -6 l0 -20 -9 20
c-8 19 -8 19 -18 -5z"/>
<path d="M2820 2132 c0 -38 22 -83 37 -77 11 4 13 1 9 -11 -5 -14 -4 -15 8 -5
17 14 235 14 253 -1 15 -12 42 28 50 75 l5 35 -181 2 c-171 1 -181 0 -181 -18z"/>
<path d="M3884 2139 c-9 -15 25 -91 38 -83 4 3 6 10 3 15 -3 5 1 6 9 3 9 -3
12 -12 8 -22 -5 -14 -3 -15 10 -4 9 7 20 12 24 11 5 -1 51 -1 102 0 68 1 91 4
86 13 -4 7 -3 8 4 4 9 -5 9 -13 0 -29 -10 -19 -9 -20 4 -10 8 7 19 9 23 5 5
-4 5 1 2 10 -4 11 -2 15 7 12 17 -6 34 16 42 52 l5 29 -181 0 c-100 0 -184 -3
-186 -6z"/>
<path d="M1745 1800 c-4 -6 -15 -8 -26 -5 -11 4 -19 2 -19 -4 0 -6 -3 -10 -7
-10 -25 4 -45 -4 -68 -28 -38 -40 -74 -116 -82 -168 -6 -50 -13 -47 87 -49
l45 0 3 57 3 58 32 -3 c31 -3 32 -5 35 -53 2 -27 9 -53 15 -57 14 -9 266 -10
320 -2 l37 7 0 53 0 54 35 0 34 0 3 -57 3 -58 35 -2 c19 -1 50 1 68 4 33 5 33
6 26 46 -10 64 -38 118 -83 167 -24 25 -40 38 -36 30 4 -8 -1 -6 -10 5 -9 11
-22 18 -28 15 -7 -2 -103 -7 -213 -10 -159 -4 -200 -2 -197 8 6 15 -3 16 -12
2z"/>
<path d="M2659 1704 c-5 -6 -16 -28 -24 -49 -13 -29 -14 -40 -4 -49 9 -8 10
-8 5 2 -8 13 5 15 61 12 18 -1 35 5 40 13 4 8 24 17 43 19 30 3 35 0 38 -20 2
-16 7 -20 15 -14 7 4 67 6 134 3 67 -3 138 -3 157 0 20 3 36 2 36 -3 0 -4 5
-8 10 -8 6 0 10 8 10 18 0 10 2 21 5 24 10 10 80 -8 77 -20 -1 -8 14 -12 47
-12 30 0 51 -5 53 -12 3 -8 6 -7 10 3 4 9 -2 34 -12 57 l-19 41 -336 3 c-232
2 -340 0 -346 -8z"/>
<path d="M4053 1713 l-332 -3 -11 -36 c-13 -38 -8 -64 12 -64 9 0 9 3 0 12 -7
7 -12 17 -12 23 1 5 8 1 18 -10 16 -18 72 -31 70 -16 -2 22 6 29 41 33 38 3
61 -9 61 -33 0 -7 6 -5 13 6 10 12 16 14 21 7 9 -15 46 -16 46 -2 0 6 7 10 15
10 8 0 15 -4 15 -10 0 -15 147 -13 154 3 5 10 7 10 12 0 8 -18 63 -16 70 2 4
10 20 15 45 15 32 0 41 -5 49 -22 5 -13 9 -18 9 -13 1 6 21 9 46 8 33 -1 45 3
45 13 0 8 -4 14 -10 14 -5 0 -7 6 -4 13 4 11 -32 62 -39 55 -1 -2 -151 -4
-334 -5z"/>
<path d="M1750 1065 c0 -21 24 -76 45 -100 9 -11 14 -15 12 -10 -3 6 1 16 9
23 12 11 17 9 16 -8 0 -3 33 -4 75 -2 52 3 73 0 69 -7 -9 -14 -11 -14 47 4 35
10 47 11 47 2 1 -17 36 52 44 86 l6 27 -185 0 c-159 0 -185 -2 -185 -15z"/>
<path d="M3895 1092 c-14 -3 -16 -10 -10 -40 17 -97 101 -158 204 -149 30 2
57 9 59 15 2 7 8 12 13 12 30 0 89 88 89 134 l0 25 -169 3 c-92 2 -176 1 -186
0z"/>
<path d="M4956 1071 c-4 -5 -1 -20 5 -33 8 -19 18 -24 42 -22 18 1 88 2 157 3
69 1 130 5 137 9 6 4 13 16 15 27 3 19 -3 20 -174 23 -107 2 -179 -1 -182 -7z"/>
<path d="M1597 637 c-19 -19 -30 -44 -41 -92 l-6 -30 15 25 14 25 2 -30 c1
-24 3 -26 6 -7 2 12 8 20 12 18 16 -11 61 -14 62 -5 1 5 2 15 3 22 0 7 19 13
44 15 38 3 42 1 42 -20 l0 -23 172 0 c174 0 198 5 198 37 0 10 10 13 35 10 20
-2 35 -10 35 -18 0 -19 17 -26 70 -29 45 -2 47 -1 45 24 -1 14 -9 41 -18 58
l-17 32 -328 3 c-303 3 -328 2 -345 -15z"/>
<path d="M4354 667 c-3 -8 -11 -14 -19 -14 -8 0 -12 3 -11 6 6 9 -562 4 -575
-5 -8 -5 -10 -2 -5 7 4 8 0 5 -9 -6 -25 -29 -52 -94 -60 -142 l-7 -43 71 0 71
0 0 55 0 55 35 0 35 0 0 -55 0 -55 185 0 185 0 0 55 0 55 34 0 c37 0 46 -15
46 -78 l0 -33 63 3 c54 3 62 6 65 24 4 28 -34 127 -59 156 -11 13 -18 18 -15
12 3 -6 -1 -11 -8 -11 -8 0 -12 6 -9 14 3 7 2 13 -1 13 -4 0 -9 -6 -12 -13z"/>
<path d="M4784 618 c-16 -31 -19 -51 -4 -28 5 8 10 10 10 4 0 -17 87 -10 117
9 6 4 13 1 15 -5 4 -10 53 -14 185 -18 100 -3 179 -2 177 2 -3 4 24 7 60 5 36
-1 60 1 53 5 -9 6 -9 8 0 8 6 0 18 -7 26 -15 12 -11 17 -12 20 -2 4 8 6 7 7
-3 0 -10 6 -6 16 10 8 14 13 17 10 8 -3 -9 1 -21 8 -27 10 -9 13 -6 11 13 -2
13 -8 33 -13 43 -10 17 -31 18 -347 18 l-337 0 -14 -27z"/>
</g>
</svg>
